<svg width="363" height="299" viewBox="0 0 363 299" fill="none" xmlns="http://www.w3.org/2000/svg">
<path d="M0 14C0 6.26801 6.26801 0 14 0H349C356.732 0 363 6.26801 363 14V285C363 292.732 356.732 299 349 299H14C6.26801 299 0 292.732 0 285V14Z" fill="#3B3C41"/>
<path d="M243.807 121.694C244.591 120.446 246.409 120.446 247.193 121.694L302.031 208.936C302.868 210.268 301.91 212 300.337 212H190.663C189.09 212 188.132 210.268 188.969 208.936L243.807 121.694Z" fill="#ECA63C"/>
<path d="M86.3251 132V128.16H73.3171V120.384L77.6371 100.368H90.2131L84.0211 119.136H86.3731L87.3331 113.712L97.2211 113.376V119.136H98.4211V128.16H97.2211V132H86.3251Z" fill="white"/>
<path d="M99.4678 116.208C99.4678 110.384 100.412 106.192 102.3 103.632C104.188 101.04 107.452 99.744 112.092 99.744C116.732 99.744 119.964 101.024 121.788 103.584C123.612 106.112 124.524 110.304 124.524 116.16C124.524 121.984 123.596 126.192 121.74 128.784C119.916 131.344 116.668 132.624 111.996 132.624C107.324 132.624 104.06 131.344 102.204 128.784C100.38 126.192 99.4678 122 99.4678 116.208ZM112.812 109.008C112.62 108.848 112.348 108.768 111.996 108.768C111.644 108.768 111.372 108.848 111.18 109.008C110.988 109.168 110.828 109.52 110.7 110.064C110.476 111.024 110.364 113.072 110.364 116.208C110.364 119.312 110.46 121.328 110.652 122.256C110.876 123.152 111.324 123.6 111.996 123.6C112.668 123.6 113.1 123.152 113.292 122.256C113.516 121.328 113.628 119.664 113.628 117.264C113.628 114.864 113.596 113.2 113.532 112.272C113.5 111.344 113.42 110.608 113.292 110.064C113.164 109.52 113.004 109.168 112.812 109.008Z" fill="white"/>
<path d="M139.106 132V128.16H126.098V120.384L130.418 100.368H142.994L136.802 119.136H139.154L140.114 113.712L150.002 113.376V119.136H151.202V128.16H150.002V132H139.106Z" fill="white"/>
<path d="M153.113 132V122.496H164.057V132H153.113ZM153.449 120.288L152.777 99.84H164.393L163.721 120.288H153.449Z" fill="white"/>
<path d="M56.3444 159.16H55.7244V162H51.0844V148.6H56.3444C58.4644 148.6 60.0044 148.967 60.9644 149.7C61.9377 150.433 62.4244 151.813 62.4244 153.84C62.4244 155.853 61.9377 157.247 60.9644 158.02C59.991 158.78 58.451 159.16 56.3444 159.16ZM55.7244 155.5H56.1444C56.7177 155.5 57.1244 155.373 57.3644 155.12C57.6177 154.867 57.7444 154.433 57.7444 153.82C57.7444 153.207 57.6244 152.793 57.3844 152.58C57.1577 152.367 56.7444 152.26 56.1444 152.26H55.7244V155.5Z" fill="white"/>
<path d="M72.8952 155.16V158.96C73.0152 159.053 73.1752 159.127 73.3752 159.18L73.3152 162.02C72.2752 162.18 71.5618 162.26 71.1752 162.26C70.7885 162.26 70.4352 162.2 70.1152 162.08C69.7952 161.973 69.5818 161.86 69.4752 161.74L69.3152 161.56C68.4885 162.027 67.4818 162.26 66.2952 162.26C65.1218 162.26 64.2352 161.993 63.6352 161.46C63.0352 160.913 62.7352 160.04 62.7352 158.84C62.7352 157.64 63.0752 156.84 63.7552 156.44C64.4352 156.027 65.5085 155.793 66.9752 155.74L68.4152 155.68V155.5C68.4152 155.247 68.1352 155.12 67.5752 155.12C66.3618 155.12 65.1485 155.187 63.9352 155.32L63.2752 155.38L63.1752 152.34C64.9352 151.873 66.5418 151.64 67.9952 151.64C69.5152 151.64 70.6952 151.867 71.5352 152.32C72.4418 152.8 72.8952 153.747 72.8952 155.16ZM67.6552 159.18C67.9085 159.18 68.1618 159.08 68.4152 158.88V158.14L67.7352 158.18C67.3885 158.207 67.2152 158.38 67.2152 158.7C67.2152 159.02 67.3618 159.18 67.6552 159.18Z" fill="white"/>
<path d="M75.4103 165.92C74.3436 165.573 73.8103 164.807 73.8103 163.62C73.8103 163.14 73.9036 162.713 74.0903 162.34C74.277 161.967 74.6103 161.593 75.0903 161.22C74.6103 160.887 74.3703 160.387 74.3703 159.72C74.3703 159.573 74.4636 159.38 74.6503 159.14C74.8503 158.887 75.0503 158.68 75.2503 158.52L75.5303 158.26C74.4503 157.753 73.9103 156.793 73.9103 155.38C73.9103 153.967 74.2903 152.993 75.0503 152.46C75.8236 151.913 77.097 151.64 78.8703 151.64C79.3103 151.64 79.8903 151.693 80.6103 151.8L80.9303 151.86L84.6303 151.8V154.42H83.6903C83.8103 154.753 83.8703 155.027 83.8703 155.24C83.8703 156.68 83.5036 157.647 82.7703 158.14C82.037 158.62 80.7903 158.86 79.0303 158.86C78.7636 158.86 78.5103 158.84 78.2703 158.8C78.217 158.88 78.1903 158.96 78.1903 159.04C78.1903 159.173 78.977 159.24 80.5503 159.24C82.1236 159.24 83.1836 159.473 83.7303 159.94C84.2903 160.407 84.5703 161.253 84.5703 162.48C84.5703 163.72 84.117 164.68 83.2103 165.36C82.3036 166.053 81.0103 166.4 79.3303 166.4C77.6503 166.4 76.3436 166.24 75.4103 165.92ZM77.4703 163.06C77.4703 163.233 77.977 163.32 78.9903 163.32C80.0036 163.32 80.5103 163.213 80.5103 163C80.5103 162.867 80.4236 162.78 80.2503 162.74C80.077 162.713 79.7236 162.7 79.1903 162.7L77.6503 162.62C77.5303 162.687 77.4703 162.833 77.4703 163.06ZM78.2903 155.78C78.4103 155.887 78.6103 155.94 78.8903 155.94C79.1703 155.94 79.3703 155.887 79.4903 155.78C79.6103 155.673 79.6703 155.487 79.6703 155.22C79.6703 154.953 79.6103 154.767 79.4903 154.66C79.3703 154.553 79.1703 154.5 78.8903 154.5C78.6103 154.5 78.4103 154.553 78.2903 154.66C78.1703 154.767 78.1103 154.953 78.1103 155.22C78.1103 155.487 78.1703 155.673 78.2903 155.78Z" fill="white"/>
<path d="M89.4245 158.26C89.4379 158.727 89.7379 158.96 90.3245 158.96C91.6579 158.96 92.9912 158.92 94.3245 158.84L95.1045 158.78L95.2045 161.68C93.4312 162.067 91.6645 162.26 89.9045 162.26C88.1579 162.26 86.8912 161.86 86.1045 161.06C85.3312 160.247 84.9445 158.94 84.9445 157.14C84.9445 155.327 85.3645 153.96 86.2045 153.04C87.0445 152.107 88.3512 151.64 90.1245 151.64C91.9112 151.64 93.2379 152.02 94.1045 152.78C94.9712 153.54 95.4045 154.707 95.4045 156.28L95.2045 158.26H89.4245ZM90.9245 155.82C90.9245 155.433 90.8645 155.16 90.7445 155C90.6379 154.84 90.4445 154.76 90.1645 154.76C89.8845 154.76 89.6912 154.84 89.5845 155C89.4779 155.16 89.4179 155.433 89.4045 155.82H90.9245Z" fill="white"/>
<path d="M105.017 162H100.537V151.9H104.997V152.42C105.837 151.9 106.57 151.64 107.197 151.64C108.637 151.64 109.643 152.033 110.217 152.82C110.79 153.593 111.077 154.967 111.077 156.94V162H106.597V157.24C106.597 156.08 106.357 155.5 105.877 155.5L105.017 155.64V162Z" fill="white"/>
<path d="M113.159 152.9C114.052 152.06 115.392 151.64 117.179 151.64C118.966 151.64 120.299 152.06 121.179 152.9C122.072 153.727 122.519 155.08 122.519 156.96C122.519 158.84 122.072 160.193 121.179 161.02C120.299 161.847 118.966 162.26 117.179 162.26C115.392 162.26 114.052 161.847 113.159 161.02C112.279 160.193 111.839 158.84 111.839 156.96C111.839 155.08 112.279 153.727 113.159 152.9ZM116.539 158.28C116.659 158.52 116.872 158.64 117.179 158.64C117.486 158.64 117.699 158.52 117.819 158.28C117.939 158.04 117.999 157.6 117.999 156.96C117.999 156.307 117.939 155.86 117.819 155.62C117.699 155.38 117.486 155.26 117.179 155.26C116.872 155.26 116.659 155.38 116.539 155.62C116.419 155.86 116.359 156.307 116.359 156.96C116.359 157.6 116.419 158.04 116.539 158.28Z" fill="white"/>
<path d="M128.288 155.52V157.6C128.288 157.933 128.328 158.16 128.408 158.28C128.501 158.387 128.681 158.44 128.948 158.44L129.848 158.42L129.908 161.9C128.761 162.14 127.881 162.26 127.268 162.26C126.028 162.26 125.141 162.007 124.608 161.5C124.075 160.98 123.808 160.027 123.808 158.64V155.52H123.028V151.9H123.808V149.9H128.288V151.9H129.908V155.52H128.288Z" fill="white"/>
<path d="M139.927 155.52V162H135.447V155.52H134.907V151.9H135.447V151.82C135.447 150.38 135.687 149.373 136.167 148.8C136.647 148.227 137.554 147.94 138.887 147.94C139.54 147.94 140.307 148.007 141.187 148.14L141.567 148.2V151.44C140.474 151.44 139.927 151.527 139.927 151.7V151.9H141.527V155.52H139.927Z" fill="white"/>
<path d="M143.335 152.9C144.228 152.06 145.568 151.64 147.355 151.64C149.142 151.64 150.475 152.06 151.355 152.9C152.248 153.727 152.695 155.08 152.695 156.96C152.695 158.84 152.248 160.193 151.355 161.02C150.475 161.847 149.142 162.26 147.355 162.26C145.568 162.26 144.228 161.847 143.335 161.02C142.455 160.193 142.015 158.84 142.015 156.96C142.015 155.08 142.455 153.727 143.335 152.9ZM146.715 158.28C146.835 158.52 147.048 158.64 147.355 158.64C147.662 158.64 147.875 158.52 147.995 158.28C148.115 158.04 148.175 157.6 148.175 156.96C148.175 156.307 148.115 155.86 147.995 155.62C147.875 155.38 147.662 155.26 147.355 155.26C147.048 155.26 146.835 155.38 146.715 155.62C146.595 155.86 146.535 156.307 146.535 156.96C146.535 157.6 146.595 158.04 146.715 158.28Z" fill="white"/>
<path d="M159.504 151.9H163.984V162H159.544V161.52C158.691 162.013 157.931 162.26 157.264 162.26C155.851 162.26 154.864 161.853 154.304 161.04C153.744 160.213 153.464 158.907 153.464 157.12V151.9H157.944V156.82C157.944 157.42 157.997 157.833 158.104 158.06C158.211 158.287 158.384 158.4 158.624 158.4L159.504 158.28V151.9Z" fill="white"/>
<path d="M169.587 162H165.107V151.9H169.567V152.42C170.407 151.9 171.14 151.64 171.767 151.64C173.207 151.64 174.214 152.033 174.787 152.82C175.36 153.593 175.647 154.967 175.647 156.94V162H171.167V157.24C171.167 156.08 170.927 155.5 170.447 155.5L169.587 155.64V162Z" fill="white"/>
<path d="M186.949 148.2V162H182.529L182.489 161.56C181.756 162.027 181.056 162.26 180.389 162.26C178.923 162.26 177.896 161.813 177.309 160.92C176.723 160.013 176.429 158.693 176.429 156.96C176.429 153.413 177.903 151.64 180.849 151.64L182.469 151.76V148.2H186.949ZM181.829 155.26C181.469 155.26 181.229 155.407 181.109 155.7C181.003 155.993 180.949 156.413 180.949 156.96C180.949 157.493 181.009 157.907 181.129 158.2C181.249 158.493 181.489 158.64 181.849 158.64L182.469 158.58V155.32C182.176 155.28 181.963 155.26 181.829 155.26Z" fill="white"/>
<path d="M242 156.5C242 154.567 243.567 153 245.5 153C247.433 153 249 154.567 249 156.5V179.5C249 181.433 247.433 183 245.5 183C243.567 183 242 181.433 242 179.5V156.5Z" fill="black"/>
<path d="M250 192.5C250 194.985 247.985 197 245.5 197C243.015 197 241 194.985 241 192.5C241 190.015 243.015 188 245.5 188C247.985 188 250 190.015 250 192.5Z" fill="black"/>
</svg>
